<svg xmlns="http://www.w3.org/2000/svg" xmlns:xlink="http://www.w3.org/1999/xlink" contentStyleType="text/css" height="555px" preserveAspectRatio="none" style="width:773px;height:555px;background:#FFFFFF;" version="1.1" viewBox="0 0 773 555" width="773px" zoomAndPan="magnify"><defs/><g><!--cluster Light--><g id="cluster_Light"><rect fill="none" height="322.5" rx="2.5" ry="2.5" style="stroke:#181818;stroke-width:1.0;" width="282" x="485" y="7"/><path d="M529.207,7 L529.207,18.6211 L519.207,28.6211 L485,28.6211 " fill="none" style="stroke:#181818;stroke-width:1.0;"/><text fill="#000000" font-family="sans-serif" font-size="14" font-weight="bold" lengthAdjust="spacing" textLength="34.207" x="488" y="23.1074">Light</text></g><!--cluster Matter--><g id="cluster_Matter"><rect fill="none" height="367" rx="2.5" ry="2.5" style="stroke:#181818;stroke-width:1.0;" width="454" x="7" y="161"/><path d="M59.0068,161 L59.0068,172.6211 L49.0068,182.6211 L7,182.6211 " fill="none" style="stroke:#181818;stroke-width:1.0;"/><text fill="#000000" font-family="sans-serif" font-size="14" font-weight="bold" lengthAdjust="spacing" textLength="42.0068" x="10" y="177.1074">Matter</text></g><!--class Polarization--><g id="elem_Polarization"><rect codeLine="13" fill="#FFFFFF" height="100.5234" id="Polarization" rx="2.5" ry="2.5" style="stroke:#AAAAAA;stroke-width:0.5;" width="250.4712" x="501" y="44"/><rect fill="#F5F5F5" height="26" rx="2.5" ry="2.5" style="stroke:#F5F5F5;stroke-width:0.5;" width="250.4712" x="501" y="44"/><rect fill="#F5F5F5" height="2.5" style="stroke:#F5F5F5;stroke-width:0.5;" width="250.4712" x="501" y="67.5"/><rect codeLine="13" fill="none" height="100.5234" id="Polarization" rx="2.5" ry="2.5" style="stroke:#AAAAAA;stroke-width:0.5;" width="250.4712" x="501" y="44"/><ellipse cx="586.1599" cy="57" fill="#ADD1B2" rx="8" ry="8" style="stroke:#181818;stroke-width:1.0;"/><path d="M586.8005,61.1563 Q585.9099,61.1563 585.1443,60.8906 Q584.3943,60.625 583.8474,60.1094 Q583.3162,59.5938 583.0037,58.8125 Q582.7068,58.0313 582.7068,57.0156 Q582.7068,56.0625 582.988,55.2969 Q583.2849,54.5156 583.8318,53.9531 Q584.3474,53.4219 585.113,53.1406 Q585.8943,52.8438 586.8005,52.8438 Q587.3005,52.8438 587.7068,52.9063 Q588.113,52.9531 588.4568,53.0469 Q588.8162,53.1563 589.113,53.2813 Q589.4099,53.4063 589.6287,53.5156 L589.6287,55.4531 L589.3943,55.4531 Q589.238,55.3281 589.0037,55.1563 Q588.7849,54.9688 588.488,54.7969 Q588.1912,54.625 587.8474,54.5156 Q587.5037,54.3906 587.113,54.3906 Q586.6755,54.3906 586.2849,54.5313 Q585.8943,54.6563 585.5662,54.9844 Q585.2537,55.2813 585.0505,55.7969 Q584.863,56.2969 584.863,57.0156 Q584.863,57.7656 585.0662,58.2813 Q585.2849,58.7813 585.5974,59.0625 Q585.9255,59.3594 586.3318,59.4844 Q586.738,59.6094 587.1287,59.6094 Q587.5037,59.6094 587.863,59.5 Q588.238,59.3906 588.5505,59.1875 Q588.8162,59.0469 589.0349,58.875 Q589.2693,58.6875 589.4099,58.5625 L589.6287,58.5625 L589.6287,60.4688 Q589.3318,60.6094 589.0505,60.7344 Q588.7849,60.8438 588.4724,60.9219 Q588.0818,61.0313 587.738,61.0938 Q587.3943,61.1563 586.8005,61.1563 Z " fill="#000000"/><text fill="#333333" font-family="Arial" font-size="14" lengthAdjust="spacing" textLength="73.1514" x="602.1599" y="61.8535">Polarization</text><line style="stroke:#AAAAAA;stroke-width:0.5;" x1="502" x2="750.4712" y1="70" y2="70"/><ellipse cx="512" cy="82.3154" fill="none" rx="3" ry="3" style="stroke:#038048;stroke-width:1.0;"/><text fill="#9370D8" font-family="sans-serif" font-size="11" lengthAdjust="spacing" textLength="37.2969" x="518" y="85.8701">ndarray</text><text fill="#333333" font-family="sans-serif" font-size="11" lengthAdjust="spacing" textLength="17.1177" x="558.353" y="85.8701">vec</text><ellipse cx="512" cy="96.9463" fill="none" rx="3" ry="3" style="stroke:#038048;stroke-width:1.0;"/><text fill="#9370D8" font-family="sans-serif" font-size="11" lengthAdjust="spacing" textLength="37.2969" x="518" y="100.501">ndarray</text><text fill="#333333" font-family="sans-serif" font-size="11" lengthAdjust="spacing" textLength="31.7969" x="558.353" y="100.501">q_axis</text><ellipse cx="512" cy="111.5771" fill="none" rx="3" ry="3" style="stroke:#038048;stroke-width:1.0;"/><text fill="#9370D8" font-family="sans-serif" font-size="11" lengthAdjust="spacing" textLength="20.7969" x="518" y="115.1318">bool</text><text fill="#333333" font-family="sans-serif" font-size="11" lengthAdjust="spacing" textLength="47.0884" x="541.853" y="115.1318">vec_as_q</text><line style="stroke:#AAAAAA;stroke-width:0.5;" x1="502" x2="750.4712" y1="121.8926" y2="121.8926"/><ellipse cx="512" cy="134.208" fill="#84BE84" rx="3" ry="3" style="stroke:#038048;stroke-width:1.0;"/><text fill="#9370D8" font-family="sans-serif" font-size="11" lengthAdjust="spacing" textLength="26.2969" x="518" y="137.7627">None</text><text fill="#333333" font-family="sans-serif" font-size="11" lengthAdjust="spacing" textLength="56.8691" x="547.353" y="137.7627">def_q_axis(</text><text fill="#9370D8" font-family="sans-serif" font-size="11" lengthAdjust="spacing" textLength="37.2969" x="604.2222" y="137.7627">ndarray</text><text fill="#333333" font-family="sans-serif" font-size="11" lengthAdjust="spacing" textLength="34.853" x="644.5752" y="137.7627">q_axis,</text><text fill="#9370D8" font-family="sans-serif" font-size="11" lengthAdjust="spacing" textLength="20.7969" x="682.4844" y="137.7627">bool</text><text fill="#333333" font-family="sans-serif" font-size="11" lengthAdjust="spacing" textLength="39.1338" x="706.3374" y="137.7627">q_fixed)</text></g><!--class Laser--><g id="elem_Laser"><rect codeLine="20" fill="#FFFFFF" height="100.5234" id="Laser" rx="2.5" ry="2.5" style="stroke:#AAAAAA;stroke-width:0.5;" width="139.7891" x="550" y="212.5"/><rect fill="#F5F5F5" height="26" rx="2.5" ry="2.5" style="stroke:#F5F5F5;stroke-width:0.5;" width="139.7891" x="550" y="212.5"/><rect fill="#F5F5F5" height="2.5" style="stroke:#F5F5F5;stroke-width:0.5;" width="139.7891" x="550" y="236"/><rect codeLine="20" fill="none" height="100.5234" id="Laser" rx="2.5" ry="2.5" style="stroke:#AAAAAA;stroke-width:0.5;" width="139.7891" x="550" y="212.5"/><ellipse cx="598.8843" cy="225.5" fill="#ADD1B2" rx="8" ry="8" style="stroke:#181818;stroke-width:1.0;"/><path d="M599.5249,229.6563 Q598.6343,229.6563 597.8687,229.3906 Q597.1187,229.125 596.5718,228.6094 Q596.0405,228.0938 595.728,227.3125 Q595.4312,226.5313 595.4312,225.5156 Q595.4312,224.5625 595.7124,223.7969 Q596.0093,223.0156 596.5562,222.4531 Q597.0718,221.9219 597.8374,221.6406 Q598.6187,221.3438 599.5249,221.3438 Q600.0249,221.3438 600.4312,221.4063 Q600.8374,221.4531 601.1812,221.5469 Q601.5405,221.6563 601.8374,221.7813 Q602.1343,221.9063 602.353,222.0156 L602.353,223.9531 L602.1187,223.9531 Q601.9624,223.8281 601.728,223.6563 Q601.5093,223.4688 601.2124,223.2969 Q600.9155,223.125 600.5718,223.0156 Q600.228,222.8906 599.8374,222.8906 Q599.3999,222.8906 599.0093,223.0313 Q598.6187,223.1563 598.2905,223.4844 Q597.978,223.7813 597.7749,224.2969 Q597.5874,224.7969 597.5874,225.5156 Q597.5874,226.2656 597.7905,226.7813 Q598.0093,227.2813 598.3218,227.5625 Q598.6499,227.8594 599.0562,227.9844 Q599.4624,228.1094 599.853,228.1094 Q600.228,228.1094 600.5874,228 Q600.9624,227.8906 601.2749,227.6875 Q601.5405,227.5469 601.7593,227.375 Q601.9937,227.1875 602.1343,227.0625 L602.353,227.0625 L602.353,228.9688 Q602.0562,229.1094 601.7749,229.2344 Q601.5093,229.3438 601.1968,229.4219 Q600.8062,229.5313 600.4624,229.5938 Q600.1187,229.6563 599.5249,229.6563 Z " fill="#000000"/><text fill="#333333" font-family="Arial" font-size="14" lengthAdjust="spacing" textLength="35.0205" x="614.8843" y="230.3535">Laser</text><line style="stroke:#AAAAAA;stroke-width:0.5;" x1="551" x2="688.7891" y1="238.5" y2="238.5"/><ellipse cx="561" cy="250.8154" fill="none" rx="3" ry="3" style="stroke:#038048;stroke-width:1.0;"/><text fill="#9370D8" font-family="sans-serif" font-size="11" lengthAdjust="spacing" textLength="20.7915" x="567" y="254.3701">float</text><text fill="#333333" font-family="sans-serif" font-size="11" lengthAdjust="spacing" textLength="18.9546" x="590.8477" y="254.3701">freq</text><ellipse cx="561" cy="265.4463" fill="none" rx="3" ry="3" style="stroke:#038048;stroke-width:1.0;"/><text fill="#9370D8" font-family="sans-serif" font-size="11" lengthAdjust="spacing" textLength="20.7915" x="567" y="269.001">float</text><text fill="#333333" font-family="sans-serif" font-size="11" lengthAdjust="spacing" textLength="40.353" x="590.8477" y="269.001">intensity</text><ellipse cx="561" cy="280.0771" fill="none" rx="3" ry="3" style="stroke:#038048;stroke-width:1.0;"/><text fill="#9370D8" font-family="sans-serif" font-size="11" lengthAdjust="spacing" textLength="57.4761" x="567" y="283.6318">Polarization</text><text fill="#333333" font-family="sans-serif" font-size="11" lengthAdjust="spacing" textLength="56.2568" x="627.5322" y="283.6318">polarization</text><ellipse cx="561" cy="294.708" fill="none" rx="3" ry="3" style="stroke:#038048;stroke-width:1.0;"/><text fill="#9370D8" font-family="sans-serif" font-size="11" lengthAdjust="spacing" textLength="37.2969" x="567" y="298.2627">ndarray</text><text fill="#333333" font-family="sans-serif" font-size="11" lengthAdjust="spacing" textLength="5.5" x="607.353" y="298.2627">k</text><line style="stroke:#AAAAAA;stroke-width:0.5;" x1="551" x2="688.7891" y1="305.0234" y2="305.0234"/></g><!--class State--><g id="elem_State"><rect codeLine="37" fill="#FFFFFF" height="129.7852" id="State" rx="2.5" ry="2.5" style="stroke:#AAAAAA;stroke-width:0.5;" width="218.6636" x="225.5" y="198"/><rect fill="#F5F5F5" height="26" rx="2.5" ry="2.5" style="stroke:#F5F5F5;stroke-width:0.5;" width="218.6636" x="225.5" y="198"/><rect fill="#F5F5F5" height="2.5" style="stroke:#F5F5F5;stroke-width:0.5;" width="218.6636" x="225.5" y="221.5"/><rect codeLine="37" fill="none" height="129.7852" id="State" rx="2.5" ry="2.5" style="stroke:#AAAAAA;stroke-width:0.5;" width="218.6636" x="225.5" y="198"/><ellipse cx="314.9871" cy="211" fill="#ADD1B2" rx="8" ry="8" style="stroke:#181818;stroke-width:1.0;"/><path d="M315.6277,215.1563 Q314.7371,215.1563 313.9714,214.8906 Q313.2214,214.625 312.6746,214.1094 Q312.1433,213.5938 311.8308,212.8125 Q311.5339,212.0313 311.5339,211.0156 Q311.5339,210.0625 311.8152,209.2969 Q312.1121,208.5156 312.6589,207.9531 Q313.1746,207.4219 313.9402,207.1406 Q314.7214,206.8438 315.6277,206.8438 Q316.1277,206.8438 316.5339,206.9063 Q316.9402,206.9531 317.2839,207.0469 Q317.6433,207.1563 317.9402,207.2813 Q318.2371,207.4063 318.4558,207.5156 L318.4558,209.4531 L318.2214,209.4531 Q318.0652,209.3281 317.8308,209.1563 Q317.6121,208.9688 317.3152,208.7969 Q317.0183,208.625 316.6746,208.5156 Q316.3308,208.3906 315.9402,208.3906 Q315.5027,208.3906 315.1121,208.5313 Q314.7214,208.6563 314.3933,208.9844 Q314.0808,209.2813 313.8777,209.7969 Q313.6902,210.2969 313.6902,211.0156 Q313.6902,211.7656 313.8933,212.2813 Q314.1121,212.7813 314.4246,213.0625 Q314.7527,213.3594 315.1589,213.4844 Q315.5652,213.6094 315.9558,213.6094 Q316.3308,213.6094 316.6902,213.5 Q317.0652,213.3906 317.3777,213.1875 Q317.6433,213.0469 317.8621,212.875 Q318.0964,212.6875 318.2371,212.5625 L318.4558,212.5625 L318.4558,214.4688 Q318.1589,214.6094 317.8777,214.7344 Q317.6121,214.8438 317.2996,214.9219 Q316.9089,215.0313 316.5652,215.0938 Q316.2214,215.1563 315.6277,215.1563 Z " fill="#000000"/><text fill="#333333" font-family="Arial" font-size="14" lengthAdjust="spacing" textLength="32.6895" x="330.9871" y="215.8535">State</text><line style="stroke:#AAAAAA;stroke-width:0.5;" x1="226.5" x2="443.1636" y1="224" y2="224"/><ellipse cx="236.5" cy="236.3154" fill="none" rx="3" ry="3" style="stroke:#038048;stroke-width:1.0;"/><text fill="#9370D8" font-family="sans-serif" font-size="11" lengthAdjust="spacing" textLength="20.7915" x="242.5" y="239.8701">float</text><text fill="#333333" font-family="sans-serif" font-size="11" lengthAdjust="spacing" textLength="27.5161" x="266.3477" y="239.8701">freq_j</text><ellipse cx="236.5" cy="250.9463" fill="none" rx="3" ry="3" style="stroke:#038048;stroke-width:1.0;"/><text fill="#9370D8" font-family="sans-serif" font-size="11" lengthAdjust="spacing" textLength="20.7915" x="242.5" y="254.501">float</text><text fill="#333333" font-family="sans-serif" font-size="11" lengthAdjust="spacing" textLength="55.6123" x="266.3477" y="254.501">s, l, j, i, f, m</text><ellipse cx="236.5" cy="265.5771" fill="none" rx="3" ry="3" style="stroke:#038048;stroke-width:1.0;"/><text fill="#9370D8" font-family="sans-serif" font-size="11" lengthAdjust="spacing" textLength="40.3477" x="242.5" y="269.1318">list[float]</text><text fill="#333333" font-family="sans-serif" font-size="11" lengthAdjust="spacing" textLength="59.9253" x="285.9038" y="269.1318">hyper_const</text><ellipse cx="236.5" cy="280.208" fill="none" rx="3" ry="3" style="stroke:#038048;stroke-width:1.0;"/><text fill="#9370D8" font-family="sans-serif" font-size="11" lengthAdjust="spacing" textLength="20.7915" x="242.5" y="283.7627">float</text><text fill="#333333" font-family="sans-serif" font-size="11" lengthAdjust="spacing" textLength="6.1177" x="266.3477" y="283.7627">g</text><ellipse cx="236.5" cy="294.8389" fill="none" rx="3" ry="3" style="stroke:#038048;stroke-width:1.0;"/><text fill="#9370D8" font-family="sans-serif" font-size="11" lengthAdjust="spacing" textLength="12.2192" x="242.5" y="298.3936">str</text><text fill="#333333" font-family="sans-serif" font-size="11" lengthAdjust="spacing" textLength="23.2407" x="257.7754" y="298.3936">label</text><line style="stroke:#AAAAAA;stroke-width:0.5;" x1="226.5" x2="443.1636" y1="305.1543" y2="305.1543"/><ellipse cx="236.5" cy="317.4697" fill="#84BE84" rx="3" ry="3" style="stroke:#038048;stroke-width:1.0;"/><text fill="#9370D8" font-family="sans-serif" font-size="11" lengthAdjust="spacing" textLength="26.2969" x="242.5" y="321.0244">None</text><text fill="#333333" font-family="sans-serif" font-size="11" lengthAdjust="spacing" textLength="37.3076" x="271.853" y="321.0244">update(</text><text fill="#9370D8" font-family="sans-serif" font-size="11" lengthAdjust="spacing" textLength="61.7515" x="309.1606" y="321.0244">Environment</text><text fill="#333333" font-family="sans-serif" font-size="11" lengthAdjust="spacing" textLength="64.1953" x="373.9683" y="321.0244">environment)</text></g><!--class DecayMap--><g id="elem_DecayMap"><rect codeLine="46" fill="#FFFFFF" height="85.8926" id="DecayMap" rx="2.5" ry="2.5" style="stroke:#AAAAAA;stroke-width:0.5;" width="161.8052" x="23" y="220"/><rect fill="#F5F5F5" height="26" rx="2.5" ry="2.5" style="stroke:#F5F5F5;stroke-width:0.5;" width="161.8052" x="23" y="220"/><rect fill="#F5F5F5" height="2.5" style="stroke:#F5F5F5;stroke-width:0.5;" width="161.8052" x="23" y="243.5"/><rect codeLine="46" fill="none" height="85.8926" id="DecayMap" rx="2.5" ry="2.5" style="stroke:#AAAAAA;stroke-width:0.5;" width="161.8052" x="23" y="220"/><ellipse cx="66.9441" cy="233" fill="#ADD1B2" rx="8" ry="8" style="stroke:#181818;stroke-width:1.0;"/><path d="M67.5847,237.1563 Q66.6941,237.1563 65.9285,236.8906 Q65.1785,236.625 64.6316,236.1094 Q64.1003,235.5938 63.7878,234.8125 Q63.491,234.0313 63.491,233.0156 Q63.491,232.0625 63.7722,231.2969 Q64.0691,230.5156 64.616,229.9531 Q65.1316,229.4219 65.8972,229.1406 Q66.6785,228.8438 67.5847,228.8438 Q68.0847,228.8438 68.491,228.9063 Q68.8972,228.9531 69.241,229.0469 Q69.6003,229.1563 69.8972,229.2813 Q70.1941,229.4063 70.4128,229.5156 L70.4128,231.4531 L70.1785,231.4531 Q70.0222,231.3281 69.7878,231.1563 Q69.5691,230.9688 69.2722,230.7969 Q68.9753,230.625 68.6316,230.5156 Q68.2878,230.3906 67.8972,230.3906 Q67.4597,230.3906 67.0691,230.5313 Q66.6785,230.6563 66.3503,230.9844 Q66.0378,231.2813 65.8347,231.7969 Q65.6472,232.2969 65.6472,233.0156 Q65.6472,233.7656 65.8503,234.2813 Q66.0691,234.7813 66.3816,235.0625 Q66.7097,235.3594 67.116,235.4844 Q67.5222,235.6094 67.9128,235.6094 Q68.2878,235.6094 68.6472,235.5 Q69.0222,235.3906 69.3347,235.1875 Q69.6003,235.0469 69.8191,234.875 Q70.0535,234.6875 70.1941,234.5625 L70.4128,234.5625 L70.4128,236.4688 Q70.116,236.6094 69.8347,236.7344 Q69.5691,236.8438 69.2566,236.9219 Q68.866,237.0313 68.5222,237.0938 Q68.1785,237.1563 67.5847,237.1563 Z " fill="#000000"/><text fill="#333333" font-family="Arial" font-size="14" lengthAdjust="spacing" textLength="66.917" x="82.9441" y="237.8535">DecayMap</text><line style="stroke:#AAAAAA;stroke-width:0.5;" x1="24" x2="183.8052" y1="246" y2="246"/><ellipse cx="34" cy="258.3154" fill="none" rx="3" ry="3" style="stroke:#038048;stroke-width:1.0;"/><text fill="#9370D8" font-family="sans-serif" font-size="11" lengthAdjust="spacing" textLength="61.7407" x="40" y="261.8701">list[tuple[str]]</text><text fill="#333333" font-family="sans-serif" font-size="11" lengthAdjust="spacing" textLength="28.7407" x="104.7969" y="261.8701">labels</text><ellipse cx="34" cy="272.9463" fill="none" rx="3" ry="3" style="stroke:#038048;stroke-width:1.0;"/><text fill="#9370D8" font-family="sans-serif" font-size="11" lengthAdjust="spacing" textLength="40.3477" x="40" y="276.501">list[float]</text><text fill="#333333" font-family="sans-serif" font-size="11" lengthAdjust="spacing" textLength="6.1177" x="83.4038" y="276.501">a</text><line style="stroke:#AAAAAA;stroke-width:0.5;" x1="24" x2="183.8052" y1="283.2617" y2="283.2617"/><ellipse cx="34" cy="295.5771" fill="#84BE84" rx="3" ry="3" style="stroke:#038048;stroke-width:1.0;"/><text fill="#9370D8" font-family="sans-serif" font-size="11" lengthAdjust="spacing" textLength="20.7915" x="40" y="299.1318">float</text><text fill="#333333" font-family="sans-serif" font-size="11" lengthAdjust="spacing" textLength="18.9546" x="63.8477" y="299.1318">get(</text><text fill="#9370D8" font-family="sans-serif" font-size="11" lengthAdjust="spacing" textLength="12.2192" x="82.8022" y="299.1318">str</text><text fill="#333333" font-family="sans-serif" font-size="11" lengthAdjust="spacing" textLength="80.7275" x="98.0776" y="299.1318">label_0, label_1)</text></g><!--class Atom--><g id="elem_Atom"><rect codeLine="52" fill="#FFFFFF" height="129.7852" id="Atom" rx="2.5" ry="2.5" style="stroke:#AAAAAA;stroke-width:0.5;" width="268.1743" x="177" y="382"/><rect fill="#F5F5F5" height="26" rx="2.5" ry="2.5" style="stroke:#F5F5F5;stroke-width:0.5;" width="268.1743" x="177" y="382"/><rect fill="#F5F5F5" height="2.5" style="stroke:#F5F5F5;stroke-width:0.5;" width="268.1743" x="177" y="405.5"/><rect codeLine="52" fill="none" height="129.7852" id="Atom" rx="2.5" ry="2.5" style="stroke:#AAAAAA;stroke-width:0.5;" width="268.1743" x="177" y="382"/><ellipse cx="291.2493" cy="395" fill="#ADD1B2" rx="8" ry="8" style="stroke:#181818;stroke-width:1.0;"/><path d="M291.8899,399.1563 Q290.9993,399.1563 290.2336,398.8906 Q289.4836,398.625 288.9368,398.1094 Q288.4055,397.5938 288.093,396.8125 Q287.7961,396.0313 287.7961,395.0156 Q287.7961,394.0625 288.0774,393.2969 Q288.3743,392.5156 288.9211,391.9531 Q289.4368,391.4219 290.2024,391.1406 Q290.9836,390.8438 291.8899,390.8438 Q292.3899,390.8438 292.7961,390.9063 Q293.2024,390.9531 293.5461,391.0469 Q293.9055,391.1563 294.2024,391.2813 Q294.4993,391.4063 294.718,391.5156 L294.718,393.4531 L294.4836,393.4531 Q294.3274,393.3281 294.093,393.1563 Q293.8743,392.9688 293.5774,392.7969 Q293.2805,392.625 292.9368,392.5156 Q292.593,392.3906 292.2024,392.3906 Q291.7649,392.3906 291.3743,392.5313 Q290.9836,392.6563 290.6555,392.9844 Q290.343,393.2813 290.1399,393.7969 Q289.9524,394.2969 289.9524,395.0156 Q289.9524,395.7656 290.1555,396.2813 Q290.3743,396.7813 290.6868,397.0625 Q291.0149,397.3594 291.4211,397.4844 Q291.8274,397.6094 292.218,397.6094 Q292.593,397.6094 292.9524,397.5 Q293.3274,397.3906 293.6399,397.1875 Q293.9055,397.0469 294.1243,396.875 Q294.3586,396.6875 294.4993,396.5625 L294.718,396.5625 L294.718,398.4688 Q294.4211,398.6094 294.1399,398.7344 Q293.8743,398.8438 293.5618,398.9219 Q293.1711,399.0313 292.8274,399.0938 Q292.4836,399.1563 291.8899,399.1563 Z " fill="#000000"/><text fill="#333333" font-family="Arial" font-size="14" lengthAdjust="spacing" textLength="32.6758" x="307.2493" y="399.8535">Atom</text><line style="stroke:#AAAAAA;stroke-width:0.5;" x1="178" x2="444.1743" y1="408" y2="408"/><ellipse cx="188" cy="420.3154" fill="none" rx="3" ry="3" style="stroke:#038048;stroke-width:1.0;"/><text fill="#9370D8" font-family="sans-serif" font-size="11" lengthAdjust="spacing" textLength="45.2407" x="194" y="423.8701">list[State]</text><text fill="#333333" font-family="sans-serif" font-size="11" lengthAdjust="spacing" textLength="29.3477" x="242.2969" y="423.8701">states</text><ellipse cx="188" cy="434.9463" fill="none" rx="3" ry="3" style="stroke:#038048;stroke-width:1.0;"/><text fill="#9370D8" font-family="sans-serif" font-size="11" lengthAdjust="spacing" textLength="52.5776" x="194" y="438.501">DecayMap</text><text fill="#333333" font-family="sans-serif" font-size="11" lengthAdjust="spacing" textLength="56.8691" x="249.6338" y="438.501">decay_map</text><ellipse cx="188" cy="449.5771" fill="none" rx="3" ry="3" style="stroke:#038048;stroke-width:1.0;"/><text fill="#9370D8" font-family="sans-serif" font-size="11" lengthAdjust="spacing" textLength="20.7915" x="194" y="453.1318">float</text><text fill="#333333" font-family="sans-serif" font-size="11" lengthAdjust="spacing" textLength="26.2808" x="217.8477" y="453.1318">mass</text><line style="stroke:#AAAAAA;stroke-width:0.5;" x1="178" x2="444.1743" y1="459.8926" y2="459.8926"/><ellipse cx="188" cy="472.208" fill="#84BE84" rx="3" ry="3" style="stroke:#038048;stroke-width:1.0;"/><text fill="#9370D8" font-family="sans-serif" font-size="11" lengthAdjust="spacing" textLength="20.7915" x="194" y="475.7627">float</text><text fill="#333333" font-family="sans-serif" font-size="11" lengthAdjust="spacing" textLength="92.9521" x="217.8477" y="475.7627">get_state_indexes(</text><text fill="#9370D8" font-family="sans-serif" font-size="11" lengthAdjust="spacing" textLength="31.7754" x="310.7998" y="475.7627">list[str]</text><text fill="#333333" font-family="sans-serif" font-size="11" lengthAdjust="spacing" textLength="31.7969" x="345.6313" y="475.7627">labels,</text><text fill="#9370D8" font-family="sans-serif" font-size="11" lengthAdjust="spacing" textLength="40.3477" x="380.4844" y="475.7627">list[float]</text><text fill="#333333" font-family="sans-serif" font-size="11" lengthAdjust="spacing" textLength="6.7192" x="423.8882" y="475.7627">f)</text><ellipse cx="188" cy="486.8389" fill="#84BE84" rx="3" ry="3" style="stroke:#038048;stroke-width:1.0;"/><text fill="#9370D8" font-family="sans-serif" font-size="11" lengthAdjust="spacing" textLength="37.2969" x="194" y="490.3936">ndarray</text><text fill="#333333" font-family="sans-serif" font-size="11" lengthAdjust="spacing" textLength="76.4253" x="234.353" y="490.3936">scattering_rate(</text><text fill="#9370D8" font-family="sans-serif" font-size="11" lengthAdjust="spacing" textLength="37.2969" x="310.7783" y="490.3936">ndarray</text><text fill="#333333" font-family="sans-serif" font-size="11" lengthAdjust="spacing" textLength="88.043" x="351.1313" y="490.3936">rho, theta, phi, i, j)</text><ellipse cx="188" cy="501.4697" fill="#84BE84" rx="3" ry="3" style="stroke:#038048;stroke-width:1.0;"/><text fill="#9370D8" font-family="sans-serif" font-size="11" lengthAdjust="spacing" textLength="26.2969" x="194" y="505.0244">None</text><text fill="#333333" font-family="sans-serif" font-size="11" lengthAdjust="spacing" textLength="25.0615" x="223.353" y="505.0244">plot()</text></g><!--class Environment--><g id="elem_Environment"><rect codeLine="30" fill="#FFFFFF" height="71.2617" id="Environment" rx="2.5" ry="2.5" style="stroke:#AAAAAA;stroke-width:0.5;" width="104.5928" x="282.5" y="59"/><rect fill="#F5F5F5" height="26" rx="2.5" ry="2.5" style="stroke:#F5F5F5;stroke-width:0.5;" width="104.5928" x="282.5" y="59"/><rect fill="#F5F5F5" height="2.5" style="stroke:#F5F5F5;stroke-width:0.5;" width="104.5928" x="282.5" y="82.5"/><rect codeLine="30" fill="none" height="71.2617" id="Environment" rx="2.5" ry="2.5" style="stroke:#AAAAAA;stroke-width:0.5;" width="104.5928" x="282.5" y="59"/><ellipse cx="294.5" cy="72" fill="#ADD1B2" rx="8" ry="8" style="stroke:#181818;stroke-width:1.0;"/><path d="M295.1406,76.1563 Q294.25,76.1563 293.4844,75.8906 Q292.7344,75.625 292.1875,75.1094 Q291.6563,74.5938 291.3438,73.8125 Q291.0469,73.0313 291.0469,72.0156 Q291.0469,71.0625 291.3281,70.2969 Q291.625,69.5156 292.1719,68.9531 Q292.6875,68.4219 293.4531,68.1406 Q294.2344,67.8438 295.1406,67.8438 Q295.6406,67.8438 296.0469,67.9063 Q296.4531,67.9531 296.7969,68.0469 Q297.1563,68.1563 297.4531,68.2813 Q297.75,68.4063 297.9688,68.5156 L297.9688,70.4531 L297.7344,70.4531 Q297.5781,70.3281 297.3438,70.1563 Q297.125,69.9688 296.8281,69.7969 Q296.5313,69.625 296.1875,69.5156 Q295.8438,69.3906 295.4531,69.3906 Q295.0156,69.3906 294.625,69.5313 Q294.2344,69.6563 293.9063,69.9844 Q293.5938,70.2813 293.3906,70.7969 Q293.2031,71.2969 293.2031,72.0156 Q293.2031,72.7656 293.4063,73.2813 Q293.625,73.7813 293.9375,74.0625 Q294.2656,74.3594 294.6719,74.4844 Q295.0781,74.6094 295.4688,74.6094 Q295.8438,74.6094 296.2031,74.5 Q296.5781,74.3906 296.8906,74.1875 Q297.1563,74.0469 297.375,73.875 Q297.6094,73.6875 297.75,73.5625 L297.9688,73.5625 L297.9688,75.4688 Q297.6719,75.6094 297.3906,75.7344 Q297.125,75.8438 296.8125,75.9219 Q296.4219,76.0313 296.0781,76.0938 Q295.7344,76.1563 295.1406,76.1563 Z " fill="#000000"/><text fill="#333333" font-family="Arial" font-size="14" lengthAdjust="spacing" textLength="78.5928" x="305.5" y="76.8535">Environment</text><line style="stroke:#AAAAAA;stroke-width:0.5;" x1="283.5" x2="386.0928" y1="85" y2="85"/><ellipse cx="293.5" cy="97.3154" fill="none" rx="3" ry="3" style="stroke:#038048;stroke-width:1.0;"/><text fill="#9370D8" font-family="sans-serif" font-size="11" lengthAdjust="spacing" textLength="37.2969" x="299.5" y="100.8701">ndarray</text><text fill="#333333" font-family="sans-serif" font-size="11" lengthAdjust="spacing" textLength="7.3369" x="339.853" y="100.8701">E</text><ellipse cx="293.5" cy="111.9463" fill="none" rx="3" ry="3" style="stroke:#038048;stroke-width:1.0;"/><text fill="#9370D8" font-family="sans-serif" font-size="11" lengthAdjust="spacing" textLength="37.2969" x="299.5" y="115.501">ndarray</text><text fill="#333333" font-family="sans-serif" font-size="11" lengthAdjust="spacing" textLength="7.3369" x="339.853" y="115.501">B</text><line style="stroke:#AAAAAA;stroke-width:0.5;" x1="283.5" x2="386.0928" y1="122.2617" y2="122.2617"/></g><!--class Interaction--><g id="elem_Interaction"><rect codeLine="66" fill="#FFFFFF" height="202.9395" id="Interaction" rx="2.5" ry="2.5" style="stroke:#AAAAAA;stroke-width:0.5;" width="240.0137" x="495" y="345.5"/><rect fill="#F5F5F5" height="26" rx="2.5" ry="2.5" style="stroke:#F5F5F5;stroke-width:0.5;" width="240.0137" x="495" y="345.5"/><rect fill="#F5F5F5" height="2.5" style="stroke:#F5F5F5;stroke-width:0.5;" width="240.0137" x="495" y="369"/><rect codeLine="66" fill="none" height="202.9395" id="Interaction" rx="2.5" ry="2.5" style="stroke:#AAAAAA;stroke-width:0.5;" width="240.0137" x="495" y="345.5"/><ellipse cx="578.8208" cy="358.5" fill="#ADD1B2" rx="8" ry="8" style="stroke:#181818;stroke-width:1.0;"/><path d="M579.4614,362.6563 Q578.5708,362.6563 577.8052,362.3906 Q577.0552,362.125 576.5083,361.6094 Q575.9771,361.0938 575.6646,360.3125 Q575.3677,359.5313 575.3677,358.5156 Q575.3677,357.5625 575.6489,356.7969 Q575.9458,356.0156 576.4927,355.4531 Q577.0083,354.9219 577.7739,354.6406 Q578.5552,354.3438 579.4614,354.3438 Q579.9614,354.3438 580.3677,354.4063 Q580.7739,354.4531 581.1177,354.5469 Q581.4771,354.6563 581.7739,354.7813 Q582.0708,354.9063 582.2896,355.0156 L582.2896,356.9531 L582.0552,356.9531 Q581.8989,356.8281 581.6646,356.6563 Q581.4458,356.4688 581.1489,356.2969 Q580.8521,356.125 580.5083,356.0156 Q580.1646,355.8906 579.7739,355.8906 Q579.3364,355.8906 578.9458,356.0313 Q578.5552,356.1563 578.2271,356.4844 Q577.9146,356.7813 577.7114,357.2969 Q577.5239,357.7969 577.5239,358.5156 Q577.5239,359.2656 577.7271,359.7813 Q577.9458,360.2813 578.2583,360.5625 Q578.5864,360.8594 578.9927,360.9844 Q579.3989,361.1094 579.7896,361.1094 Q580.1646,361.1094 580.5239,361 Q580.8989,360.8906 581.2114,360.6875 Q581.4771,360.5469 581.6958,360.375 Q581.9302,360.1875 582.0708,360.0625 L582.2896,360.0625 L582.2896,361.9688 Q581.9927,362.1094 581.7114,362.2344 Q581.4458,362.3438 581.1333,362.4219 Q580.7427,362.5313 580.3989,362.5938 Q580.0552,362.6563 579.4614,362.6563 Z " fill="#000000"/><text fill="#333333" font-family="Arial" font-size="14" lengthAdjust="spacing" textLength="65.3721" x="594.8208" y="363.3535">Interaction</text><line style="stroke:#AAAAAA;stroke-width:0.5;" x1="496" x2="734.0137" y1="371.5" y2="371.5"/><ellipse cx="506" cy="383.8154" fill="none" rx="3" ry="3" style="stroke:#038048;stroke-width:1.0;"/><text fill="#9370D8" font-family="sans-serif" font-size="11" lengthAdjust="spacing" textLength="25.6738" x="512" y="387.3701">Atom</text><text fill="#333333" font-family="sans-serif" font-size="11" lengthAdjust="spacing" textLength="24.4546" x="540.73" y="387.3701">atom</text><ellipse cx="506" cy="398.4463" fill="none" rx="3" ry="3" style="stroke:#038048;stroke-width:1.0;"/><text fill="#9370D8" font-family="sans-serif" font-size="11" lengthAdjust="spacing" textLength="47.0723" x="512" y="402.001">list[Laser]</text><text fill="#333333" font-family="sans-serif" font-size="11" lengthAdjust="spacing" textLength="29.3423" x="562.1284" y="402.001">lasers</text><ellipse cx="506" cy="413.0771" fill="none" rx="3" ry="3" style="stroke:#038048;stroke-width:1.0;"/><text fill="#9370D8" font-family="sans-serif" font-size="11" lengthAdjust="spacing" textLength="20.7915" x="512" y="416.6318">float</text><text fill="#333333" font-family="sans-serif" font-size="11" lengthAdjust="spacing" textLength="50.7515" x="535.8477" y="416.6318">delta_max</text><ellipse cx="506" cy="427.708" fill="none" rx="3" ry="3" style="stroke:#038048;stroke-width:1.0;"/><text fill="#9370D8" font-family="sans-serif" font-size="11" lengthAdjust="spacing" textLength="20.7969" x="512" y="431.2627">bool</text><text fill="#333333" font-family="sans-serif" font-size="11" lengthAdjust="spacing" textLength="47.6953" x="535.853" y="431.2627">controlled</text><ellipse cx="506" cy="442.3389" fill="none" rx="3" ry="3" style="stroke:#038048;stroke-width:1.0;"/><text fill="#9370D8" font-family="sans-serif" font-size="11" lengthAdjust="spacing" textLength="20.7915" x="512" y="445.8936">float</text><text fill="#333333" font-family="sans-serif" font-size="11" lengthAdjust="spacing" textLength="9.1738" x="535.8477" y="445.8936">dt</text><line style="stroke:#AAAAAA;stroke-width:0.5;" x1="496" x2="734.0137" y1="452.6543" y2="452.6543"/><ellipse cx="506" cy="464.9697" fill="#84BE84" rx="3" ry="3" style="stroke:#038048;stroke-width:1.0;"/><text fill="#9370D8" font-family="sans-serif" font-size="11" lengthAdjust="spacing" textLength="26.2969" x="512" y="468.5244">None</text><text fill="#333333" font-family="sans-serif" font-size="11" lengthAdjust="spacing" textLength="82.5483" x="541.353" y="468.5244">resonance_info()</text><ellipse cx="506" cy="479.6006" fill="#84BE84" rx="3" ry="3" style="stroke:#038048;stroke-width:1.0;"/><text fill="#9370D8" font-family="sans-serif" font-size="11" lengthAdjust="spacing" textLength="37.2969" x="512" y="483.1553">ndarray</text><text fill="#333333" font-family="sans-serif" font-size="11" lengthAdjust="spacing" textLength="28.1177" x="552.353" y="483.1553">rates(</text><text fill="#9370D8" font-family="sans-serif" font-size="11" lengthAdjust="spacing" textLength="37.2969" x="580.4707" y="483.1553">ndarray</text><text fill="#333333" font-family="sans-serif" font-size="11" lengthAdjust="spacing" textLength="62.9707" x="620.8237" y="483.1553">t, delta v, y0)</text><ellipse cx="506" cy="494.2314" fill="#84BE84" rx="3" ry="3" style="stroke:#038048;stroke-width:1.0;"/><text fill="#9370D8" font-family="sans-serif" font-size="11" lengthAdjust="spacing" textLength="37.2969" x="512" y="497.7861">ndarray</text><text fill="#333333" font-family="sans-serif" font-size="11" lengthAdjust="spacing" textLength="67.2568" x="552.353" y="497.7861">schroedinger(</text><text fill="#9370D8" font-family="sans-serif" font-size="11" lengthAdjust="spacing" textLength="37.2969" x="619.6099" y="497.7861">ndarray</text><text fill="#333333" font-family="sans-serif" font-size="11" lengthAdjust="spacing" textLength="62.9707" x="659.9629" y="497.7861">t, delta v, y0)</text><ellipse cx="506" cy="508.8623" fill="#84BE84" rx="3" ry="3" style="stroke:#038048;stroke-width:1.0;"/><text fill="#9370D8" font-family="sans-serif" font-size="11" lengthAdjust="spacing" textLength="37.2969" x="512" y="512.417">ndarray</text><text fill="#333333" font-family="sans-serif" font-size="11" lengthAdjust="spacing" textLength="37.2808" x="552.353" y="512.417">master(</text><text fill="#9370D8" font-family="sans-serif" font-size="11" lengthAdjust="spacing" textLength="37.2969" x="589.6338" y="512.417">ndarray</text><text fill="#333333" font-family="sans-serif" font-size="11" lengthAdjust="spacing" textLength="62.9707" x="629.9868" y="512.417">t, delta v, y0)</text><ellipse cx="506" cy="523.4932" fill="#84BE84" rx="3" ry="3" style="stroke:#038048;stroke-width:1.0;"/><text fill="#9370D8" font-family="sans-serif" font-size="11" lengthAdjust="spacing" textLength="37.2969" x="512" y="527.0479">ndarray</text><text fill="#333333" font-family="sans-serif" font-size="11" lengthAdjust="spacing" textLength="58.0615" x="552.353" y="527.0479">mc_master(</text><text fill="#9370D8" font-family="sans-serif" font-size="11" lengthAdjust="spacing" textLength="37.2969" x="610.4146" y="527.0479">ndarray</text><text fill="#333333" font-family="sans-serif" font-size="11" lengthAdjust="spacing" textLength="62.3638" x="650.7676" y="527.0479">t, delta v, y0,</text><text fill="#9370D8" font-family="sans-serif" font-size="11" lengthAdjust="spacing" textLength="20.7969" x="612.853" y="541.6787">bool</text><text fill="#333333" font-family="sans-serif" font-size="11" lengthAdjust="spacing" textLength="49.5161" x="636.7061" y="541.6787">dynamics,</text><text fill="#9370D8" font-family="sans-serif" font-size="11" lengthAdjust="spacing" textLength="11.6177" x="689.2783" y="541.6787">int</text><text fill="#333333" font-family="sans-serif" font-size="11" lengthAdjust="spacing" textLength="25.0615" x="703.9521" y="541.6787">ntraj)</text></g><!--link Polarization to Laser--><g id="link_Polarization_Laser"><path codeLine="27" d="M624.22,145 C623.45,166.29 622.764,185.1138 622.004,206.4038 " fill="none" id="Polarization-to-Laser" style="stroke:#000000;stroke-width:1.0;stroke-dasharray:7.0,7.0;"/><polygon fill="#000000" points="621.79,212.4,626.1085,203.5484,621.9684,207.4032,618.1136,203.263,621.79,212.4" style="stroke:#000000;stroke-width:1.0;"/></g><!--link Environment to State--><g id="link_Environment_State"><path codeLine="61" d="M335,130.4 C335,149.95 335,168.94 335,191.88 " fill="none" id="Environment-to-State" style="stroke:#000000;stroke-width:1.0;stroke-dasharray:7.0,7.0;"/><polygon fill="#000000" points="335,197.88,339,188.88,335,192.88,331,188.88,335,197.88" style="stroke:#000000;stroke-width:1.0;"/></g><!--link State to Atom--><g id="link_State_Atom"><path codeLine="62" d="M326.54,328.17 C324.24,345.56 322.5429,358.4513 320.2529,375.8513 " fill="none" id="State-to-Atom" style="stroke:#000000;stroke-width:1.0;stroke-dasharray:7.0,7.0;"/><polygon fill="#000000" points="319.47,381.8,324.6102,373.3989,320.1224,376.8427,316.6786,372.355,319.47,381.8" style="stroke:#000000;stroke-width:1.0;"/></g><!--link DecayMap to Atom--><g id="link_DecayMap_Atom"><path codeLine="63" d="M152.01,306.21 C177.57,328.68 205.0346,352.8275 233.5846,377.9375 " fill="none" id="DecayMap-to-Atom" style="stroke:#000000;stroke-width:1.0;stroke-dasharray:7.0,7.0;"/><polygon fill="#000000" points="238.09,381.9,233.9736,372.9526,234.3355,378.5979,228.6903,378.9598,238.09,381.9" style="stroke:#000000;stroke-width:1.0;"/></g><!--link Atom to Interaction--><g id="link_Atom_Interaction"><path codeLine="80" d="M445.19,447 C461.77,447 472.35,447 488.94,447 " fill="none" id="Atom-to-Interaction" style="stroke:#000000;stroke-width:1.0;stroke-dasharray:7.0,7.0;"/><polygon fill="#000000" points="494.94,447,485.94,443,489.94,447,485.94,451,494.94,447" style="stroke:#000000;stroke-width:1.0;"/></g><!--link Laser to Interaction--><g id="link_Laser_Interaction"><path codeLine="81" d="M618.63,313.73 C618.36,323.63 618.2349,328.3423 617.9349,339.2523 " fill="none" id="Laser-to-Interaction" style="stroke:#000000;stroke-width:1.0;stroke-dasharray:7.0,7.0;"/><polygon fill="#000000" points="617.77,345.25,622.0159,336.3633,617.9074,340.2519,614.0189,336.1435,617.77,345.25" style="stroke:#000000;stroke-width:1.0;"/></g><!--SRC=[jLRTJzim47_FN-4XJMkrh8M9lQ2g4coW8Gs4nCCU68gkyRKnTUpKlgAMQV_x7BUafWfjiedqfRaFtyVlTnT_o8WAUzBl5n8KpNFPItNUJoLO-uaBc1Z8etUKOOxC8ES6dLoAIKOZESV8JeKgmDcmYT7pub9bQ0I1If5z3fJ-k0kjw5Oy8JiwhbDTWmjnQWJ8RUqPfDFoUCM_QgaDU-_Ze-eS_Cm4uMskftWGio_TRSVl21pDjll6AR1NcgF5WXqV1a83QbeAZy9Q24QhAgAeS2V31DcFCXys65muFGw7x7V4tEDJO3TQWX5FG4AhjQ9yFWxICfcJA-HYdj_CJI5ng3WO0yj1t-k6x17JTWwp11R2xlOPQIt320dOPBRRvLehh5muZfDLd4xpb6AsDvLPCXOBv5sVofyeQE4Fi6ZszMuiDL1rsDZWh8szK8vFLj1ojrC8PkLR1C9sS4t3MbyGfTSRhigEd7RLXNFrA8nMEIfQzw9HZFFcfcTbi6TENm6Hwtf8wW2IMmB2zf0a3sqy76jap1vY9c8sZbc-srSAItV-WFlgX6nPe4bIhIor2JpPRMp9LAOIHYXRJC-yuAvpjPCJ05oPuqPMCnZVC8Nb5HJxWF2jeRdxU-Tolxz_cRrjtrTerKsaJgCs9eVn-izHJR6dfFD6XNfkRdArvUkU6fyR6Imv9qXoADeKchiqMpOcyTabGd5SOFr2zJMLi6sXLhzIwz0QTzkj9PlwsHTgafZNoBhjOp8TCtTD88XPaGa_im_T5eDHI4sT5x272w_SXnvNhrbjdr9MaiABgb6efDNYl7IxtK0QV81hiocTDWH_FlTrcldr78BYNctK47gEai3nQn4r-qwx5KP6IucySGIAcZNUtUYqAcziZeLZlOQW4KzASZIx152ygfWzncnvs2A4JJEZdO6Qe7dRI6vuwSrZfCa_Xubzc5_qlx-zLEDB1Rb8Nzal8lWuEKg2ct4tQ7utky4BHYrQtTfwMzA_]--></g></svg>